<svg width="64" height="64" viewBox="0 0 64 64" fill="none" xmlns="http://www.w3.org/2000/svg">
<path fill-rule="evenodd" clip-rule="evenodd" d="M6 0C2.68629 0 0 2.68629 0 6V58C0 61.3137 2.68629 64 6 64H58C61.3137 64 64 61.3137 64 58V6C64 2.68629 61.3137 0 58 0H6ZM14 8C14 6.89543 14.8954 6 16 6C17.1046 6 18 6.89543 18 8V14H30V8C30 6.89543 30.8954 6 32 6C33.1046 6 34 6.89543 34 8V14L46 14V8C46 6.89543 46.8954 6 48 6C49.1046 6 50 6.89543 50 8V14H56C57.1046 14 58 14.8954 58 16C58 17.1046 57.1046 18 56 18H50V30H56C57.1046 30 58 30.8954 58 32C58 33.1046 57.1046 34 56 34H50V46H56C57.1046 46 58 46.8954 58 48C58 49.1046 57.1046 50 56 50H50V56C50 57.1046 49.1046 58 48 58C46.8954 58 46 57.1046 46 56V50H34V56C34 57.1046 33.1046 58 32 58C30.8954 58 30 57.1046 30 56V50H18V56C18 57.1046 17.1046 58 16 58C14.8954 58 14 57.1046 14 56V50H8C6.89543 50 6 49.1046 6 48C6 46.8954 6.89543 46 8 46H14V34H8C6.89543 34 6 33.1046 6 32C6 30.8954 6.89543 30 8 30H14V18H8C6.89543 18 6 17.1046 6 16C6 14.8954 6.89543 14 8 14H14V8ZM46 34V46H34V34H46ZM30 34V46H18V34H30ZM46 30V18H34V30H46ZM30 18V30H18V18L30 18Z" fill="#EB4B41"/>
</svg>
